<svg width="170" height="184" viewBox="0 0 170 184" fill="none" xmlns="http://www.w3.org/2000/svg">
<path d="M128.959 45.8574C128.959 45.8501 128.965 45.8443 128.972 45.8443H156.914C158.605 45.8459 160.235 46.4497 161.489 47.5386C162.742 48.6276 163.529 50.1242 163.699 51.7385L167.632 89.4813C167.755 90.6614 166.829 91.6886 165.643 91.6886H155.932C154.908 91.6886 154.049 90.9147 153.943 89.8959L150.904 60.7353C150.798 59.7166 149.939 58.9426 148.915 58.9426H130.959C129.855 58.9426 128.959 59.8381 128.959 60.9426V78.5902C128.959 80.3271 128.24 81.993 126.96 83.2212C125.68 84.4494 123.944 85.1394 122.134 85.1394C120.324 85.1394 118.588 84.4494 117.308 83.2212C116.028 81.993 115.309 80.3271 115.309 78.5902V60.9427C115.309 59.8381 114.414 58.9426 113.309 58.9426H62.7088C61.6042 58.9426 60.7088 59.8381 60.7088 60.9426V78.5902C60.7088 80.3271 59.9897 81.993 58.7098 83.2212C57.4298 84.4494 55.6938 85.1394 53.8837 85.1394C52.0736 85.1394 50.3376 84.4494 49.0577 83.2212C47.7778 81.993 47.0587 80.3271 47.0587 78.5902V60.9427C47.0587 59.8381 46.1633 58.9426 45.0587 58.9426H27.0892C26.0649 58.9426 25.2062 59.7166 25.1 60.7353L14.5968 161.522C14.4738 162.702 15.3995 163.73 16.586 163.73H86.0089C87.1135 163.73 88.0089 164.625 88.0089 165.73V174.828C88.0089 175.933 87.1135 176.828 86.0089 176.828H6.8183C5.86503 176.827 4.92253 176.635 4.05152 176.263C3.18051 175.891 2.40032 175.348 1.76119 174.67C1.12207 173.991 0.6382 173.191 0.340755 172.322C0.0433087 171.453 -0.0611156 170.534 0.0342117 169.624L12.3193 51.7385C12.4884 50.1242 13.2759 48.6276 14.5292 47.5386C15.7826 46.4497 17.4126 45.8459 19.1034 45.8443H45.0587C46.1633 45.8443 47.0587 44.9489 47.0587 43.8443V41.273C47.0587 18.5604 65.2952 0 88.0089 0C110.723 0 128.959 18.5604 128.959 41.273V45.8574ZM115.309 45.8443V41.273C115.309 25.6335 102.997 13.0984 88.0089 13.0984C73.0211 13.0984 60.7088 25.6335 60.7088 41.273V43.8574C60.7088 44.9619 61.6042 45.8574 62.7088 45.8574H115.296C115.303 45.8574 115.309 45.8515 115.309 45.8443ZM158.266 144.868L145.993 133.102C144.722 131.883 142.609 132.784 142.609 134.545V176.828C142.609 178.565 141.89 180.231 140.61 181.459C139.33 182.687 137.594 183.377 135.784 183.377C133.974 183.377 132.238 182.687 130.958 181.459C129.678 180.231 128.959 178.565 128.959 176.828V134.548C128.959 132.786 126.846 131.885 125.574 133.105L113.316 144.868C112.687 145.493 111.933 145.992 111.101 146.336C110.268 146.679 109.372 146.86 108.466 146.867C107.56 146.875 106.661 146.709 105.823 146.38C104.984 146.05 104.222 145.564 103.581 144.949C102.94 144.334 102.433 143.603 102.09 142.798C101.747 141.993 101.574 141.131 101.582 140.261C101.59 139.392 101.778 138.532 102.136 137.733C102.494 136.934 103.014 136.212 103.666 135.607L130.966 109.411C132.246 108.183 133.981 107.493 135.791 107.493C137.601 107.493 139.336 108.183 140.616 109.411L167.916 135.607C168.568 136.212 169.088 136.934 169.446 137.733C169.804 138.532 169.992 139.392 170 140.261C170.008 141.131 169.835 141.993 169.492 142.798C169.149 143.603 168.642 144.334 168.001 144.949C167.36 145.564 166.598 146.05 165.759 146.38C164.921 146.709 164.022 146.875 163.116 146.867C162.209 146.86 161.314 146.679 160.481 146.336C159.648 145.992 158.895 145.493 158.266 144.868Z" fill="white"/>
</svg>
